HIERARCHY
ROOT Hips
{
     OFFSET 105.63000 95.45170 -45.09680
     CHANNELS 6 Xposition Yposition Zposition Zrotation Xrotation Yrotation
     JOINT Spine
     {
          OFFSET 0.00000 11.89050 0.00000
          CHANNELS 3 Zrotation Xrotation Yrotation
          JOINT Spine1
          {
               OFFSET 0.00000 25.65740 0.12766
               CHANNELS 3 Zrotation Xrotation Yrotation
               JOINT HEad
               {
                    OFFSET 0.00000 8.73416 0.01134
                    CHANNELS 3 Zrotation Xrotation Yrotation
                    End Site
                    {
                         OFFSET -0.29000 12.77420 2.51395
                    }
               }
               JOINT LeftShoulder1
               {
                    OFFSET 8.99000 -0.36225 -0.22000
                    CHANNELS 3 Zrotation Xrotation Yrotation
                    JOINT LeftArm
                    {
                         OFFSET 10.28270 -0.00338 0.32212
                         CHANNELS 3 Zrotation Xrotation Yrotation
                         JOINT LeftForeArm
                         {
                              OFFSET 32.76690 0.09914 -1.42434
                              CHANNELS 3 Zrotation Xrotation Yrotation
                              JOINT LeftHand
                              {
                                   OFFSET 27.56430 0.08536 1.02216
                                   CHANNELS 3 Zrotation Xrotation Yrotation
                                   End Site
                                   {
                                        OFFSET 16.74430 -0.60000 1.50291
                                   }
                              }
                         }
                    }
               }
               JOINT RightShoulder
               {
                    OFFSET -8.99000 -0.36225 -0.22000
                    CHANNELS 3 Zrotation Xrotation Yrotation
                    JOINT RightArm
                    {
                         OFFSET -10.28270 -0.00338 0.32212
                         CHANNELS 3 Zrotation Xrotation Yrotation
                         JOINT RightForeArm
                         {
                              OFFSET -32.89710 0.09914 -1.42434
                              CHANNELS 3 Zrotation Xrotation Yrotation
                              JOINT RightHand
                              {
                                   OFFSET -27.49210 0.08536 1.02216
                                   CHANNELS 3 Zrotation Xrotation Yrotation
                                   End Site
                                   {
                                        OFFSET -16.63120 -0.60000 1.50291
                                   }
                              }
                         }
                    }
               }
          }
     }
     JOINT LeftUpLeg
     {
          OFFSET 8.94580 -8.66707 0.10165
          CHANNELS 3 Zrotation Xrotation Yrotation
          JOINT LeftLeg
          {
               OFFSET 0.00000 -44.42270 1.37270
               CHANNELS 3 Zrotation Xrotation Yrotation
               JOINT LeftFoot
               {
                    OFFSET -0.25355 -42.09240 -1.46059
                    CHANNELS 3 Zrotation Xrotation Yrotation
                    JOINT LeftToes
                    {
                         OFFSET -0.04000 -4.41509 8.49910
                         CHANNELS 3 Zrotation Xrotation Yrotation
                         End Site
                         {
                              OFFSET 0.08000 -0.04745 9.77979
                         }
                    }
               }
          }
     }
     JOINT RightUpLeg
     {
          OFFSET -8.94580 -8.66707 0.10165
          CHANNELS 3 Zrotation Xrotation Yrotation
          JOINT RightLeg
          {
               OFFSET 0.00000 -44.42270 1.37270
               CHANNELS 3 Zrotation Xrotation Yrotation
               JOINT RightFoot
               {
                    OFFSET 0.25355 -42.09240 -1.46059
                    CHANNELS 3 Zrotation Xrotation Yrotation
                    JOINT RightToes
                    {
                         OFFSET 0.04000 -4.41509 8.49910
                         CHANNELS 3 Zrotation Xrotation Yrotation
                         End Site
                         {
                              OFFSET -0.08000 -0.13745 9.77979
                         }
                    }
               }
          }
     }
}
MOTION
Frames: 12
Frame Time: 0.01667
-7.15545 29.52100 -62.25370 60.83580 -1.08651 54.32750 -10.30850 23.32750 -0.92482 -16.25350 46.74830 2.31228 -33.41580 14.21400 18.04580 0.00000 0.00000 0.00000 -21.38160 -51.91860 -40.18340 -2.07847 28.50080 -73.38990 20.46810 10.36160 7.03034 19.42640 2.19031 7.66909 4.28135 -48.14410 -17.89030 23.50920 40.31180 75.20100 -5.64180 9.67993 0.89158 18.42560 -53.28960 17.48810 29.13610 83.33410 -36.23520 -42.39590 4.14597 4.51804 9.75877 -15.75250 -19.91110 -12.72100 -68.29960 -30.24380 -171.25400 57.23260 145.03200 4.05749 -32.44840 0.58397 -4.08964 -8.00812 -1.94073 
-7.15642 29.74100 -62.38600 60.33580 -0.72540 54.68020 -10.21870 23.88460 -1.21062 -15.94490 47.82790 1.61722 -31.99630 12.57600 17.21820 0.00000 0.00000 0.00000 -21.44850 -53.21650 -41.36180 -2.77253 28.51750 -73.08430 20.87190 10.24870 6.32920 20.92250 2.43173 8.15054 6.64040 -49.62900 -19.43770 26.68410 43.92550 77.85880 -5.64180 9.67993 0.89158 18.52840 -53.69040 18.35720 38.25890 84.51610 -45.56680 -41.55610 5.62574 4.96531 10.70580 -19.17960 -20.22600 -11.98510 -67.72120 -28.39490 -171.25000 57.45100 142.54601 5.85352 -30.01100 0.87384 -6.63938 -11.61960 2.06298 
-7.01234 29.97030 -62.44120 59.03890 0.06782 54.96860 -10.35210 24.22960 -1.57561 -15.41620 48.44970 0.74877 -31.82010 11.87070 15.99320 0.00000 0.00000 0.00000 -22.54060 -54.62970 -43.70440 -2.07005 28.87070 -73.47880 20.37140 10.29210 6.63624 22.25930 2.62939 8.45757 9.74277 -51.20180 -19.94390 29.94930 47.04510 78.59910 -5.64180 9.67993 0.89158 19.01580 -55.40730 19.69850 60.43370 85.42800 -68.49510 -43.18180 3.84399 4.49442 9.99090 -17.11590 -18.86290 -12.12750 -67.86890 -27.54720 -170.87900 57.86820 140.41800 6.88844 -26.96730 0.90732 -9.91889 -17.16780 6.52623 
-6.45046 30.17890 -62.34290 57.98480 1.32854 55.26200 -11.00610 24.52740 -2.08195 -14.74200 49.06940 -0.41431 -31.00630 9.53901 14.63530 0.00000 0.00000 0.00000 -22.90250 -56.38050 -45.32320 -1.69802 29.40960 -73.98310 20.27370 10.33500 6.90108 23.38180 2.79054 8.67108 13.92930 -53.32560 -18.48510 30.73100 49.04670 79.74340 -5.64180 9.67993 0.89158 20.01250 -57.32340 22.07180 98.27270 85.72430 -106.48700 -41.16960 2.62827 3.81975 9.49509 -14.83450 -19.75420 -11.05810 -67.99430 -25.39870 -170.76601 57.85400 140.55600 2.85563 -30.10630 0.26124 -5.85203 -10.29360 1.66024 
-6.24967 30.44010 -62.49430 56.04120 1.35512 55.27660 -9.50841 24.53120 -2.64906 -13.04310 49.21940 -2.05524 -29.61950 8.31829 13.50240 0.00000 0.00000 0.00000 -22.79940 -57.58890 -45.83200 -2.85598 29.55300 -73.89420 20.78750 10.25100 6.35102 24.26360 2.96808 9.01907 15.10930 -56.66500 -18.18760 34.57350 51.62140 76.75970 -5.64180 9.67993 0.89158 22.40610 -58.56790 24.31290 120.61800 84.98290 -130.20399 -42.86480 3.49490 4.32456 10.00080 -17.25560 -18.62720 -9.60948 -68.81990 -24.43250 -170.06500 59.00030 135.96800 4.54163 -27.18260 0.50208 -7.99509 -13.47260 6.70601 
-6.03312 30.73440 -62.74690 54.82090 1.88827 56.02860 -9.60526 24.82870 -3.30777 -11.60050 49.74770 -3.74775 -28.08950 6.65412 11.87470 0.00000 0.00000 0.00000 -22.90910 -58.83440 -47.04480 -1.99020 29.88340 -74.47750 20.53960 10.34250 6.90921 25.51750 3.23662 9.53373 12.96600 -60.85990 -19.36260 40.51000 53.99510 71.05060 -5.64180 9.67993 0.89158 22.42750 -60.35980 24.85610 134.30000 83.31140 -142.71899 -46.21230 2.81116 4.41790 9.19169 -12.99320 -20.85790 -11.71390 -68.58520 -27.42120 -169.33501 60.13340 132.69099 3.02564 -30.64870 0.30816 -7.09649 -9.93650 15.82740 
-5.63939 30.94140 -62.94400 53.70230 2.90531 56.73890 -9.70456 25.12550 -4.04251 -10.37400 50.32330 -5.45514 -26.96360 5.24913 9.75622 0.00000 0.00000 0.00000 -22.72110 -60.28970 -48.55410 -1.78161 30.36250 -74.88710 20.68520 10.40840 7.27049 26.53970 3.44966 9.89871 10.07110 -65.85110 -19.95260 46.40890 54.99960 63.92560 -5.64180 9.67993 0.89158 22.60800 -62.00930 25.99040 145.51100 82.18840 -154.70500 -42.22970 4.60673 4.67155 10.21210 -16.64510 -21.62710 -17.05270 -69.04240 -33.27850 -168.45399 60.99030 131.20200 -4.26158 -24.58890 -0.94029 -11.58690 -20.57290 15.95320 
-5.32114 31.41230 -63.21610 52.36470 2.43760 57.10490 -8.13982 25.69530 -4.58589 -8.13070 51.55840 -7.36814 -25.95430 1.96926 8.08363 0.00000 0.00000 0.00000 -23.76830 -61.89740 -51.08440 -2.09404 30.27010 -74.25560 20.80180 10.35920 6.97091 25.34760 3.18776 9.42118 7.41644 -71.35820 -21.41480 54.30420 55.21470 54.68140 -5.64180 9.67993 0.89158 23.37010 -62.81200 26.76890 149.70500 80.36050 -159.12601 -44.64910 1.16356 3.59136 8.27055 -10.44080 -19.29120 -18.78980 -68.98510 -35.81970 -168.02000 61.76900 129.38100 -1.41080 -19.70610 -0.40524 -15.29590 -29.97870 20.19440 
-4.64364 31.72710 -63.35670 51.36200 2.89352 57.76230 -8.37768 25.93200 -5.09836 -7.18843 52.09590 -8.60944 -23.10870 -1.33302 7.70873 0.00000 0.00000 0.00000 -22.48610 -62.69070 -51.73660 -2.34570 29.98490 -73.89700 21.24910 10.31370 6.65640 25.66960 3.28411 9.64690 4.52519 -73.40820 -22.51690 52.72060 54.23620 53.62120 -5.64180 9.67993 0.89158 23.50790 -63.76610 28.00140 153.32001 78.84310 -162.58400 -44.66380 1.64531 3.78581 8.76600 -11.64830 -20.32960 -21.47600 -69.24550 -38.88400 -168.28000 61.24110 131.92300 -4.21087 -24.33230 -0.92057 -12.15300 -21.92940 16.78760 
-4.32377 32.17850 -63.52940 50.10990 2.68449 58.10620 -7.92833 26.32930 -5.30284 -6.09925 52.81570 -9.39013 -21.66390 -3.63090 5.51587 0.00000 0.00000 0.00000 -23.18140 -63.50160 -54.41160 -1.73936 30.15890 -74.11540 20.94970 10.37540 7.04305 25.47980 3.21682 9.47627 4.18321 -74.59330 -21.57320 49.24710 53.12670 54.32270 -5.64180 9.67993 0.89158 24.27030 -64.14010 28.75820 155.35400 77.99530 -165.56599 -43.91240 0.94312 3.43886 8.44263 -10.87110 -19.62300 -23.08560 -69.63780 -40.80430 -168.26601 61.38290 131.17500 -2.77467 -22.06960 -0.62939 -13.75680 -26.06580 19.36980 
-3.74440 32.62410 -63.56100 48.89780 2.94782 58.43600 -7.97010 26.66470 -5.73428 -5.12796 53.50740 -10.53570 -20.24560 -5.17259 3.74151 0.00000 0.00000 0.00000 -23.67020 -64.82560 -56.67530 -2.26730 30.08650 -73.43550 21.01360 10.40250 7.18811 25.91180 3.32350 9.69466 10.16040 -74.35450 -14.07900 42.00820 51.23270 58.16050 -5.64180 9.67993 0.89158 24.68780 -64.51380 29.98340 155.63200 77.14080 -165.63300 -45.74680 -1.24518 2.69605 7.54467 -7.24955 -19.73080 -26.17900 -70.17640 -43.98340 -168.58099 60.87160 131.54900 -0.20230 -22.17450 -0.29638 -13.72900 -26.51850 22.09380 
-3.44305 33.21860 -63.78090 47.20530 3.28620 58.45260 -7.31856 26.94170 -6.10095 -4.25459 53.97330 -11.57870 -18.10650 -7.30892 1.87556 0.00000 0.00000 0.00000 -23.96350 -65.93860 -58.51320 -2.05737 30.02140 -73.33000 21.19700 10.39530 7.12124 25.29420 3.19995 9.48646 11.01140 -75.54940 -12.63250 42.66060 50.87060 55.76450 -5.64180 9.67993 0.89158 25.07870 -64.90130 30.86030 156.11200 77.51800 -165.75200 -44.08240 -1.51731 2.47943 7.58820 -7.16506 -20.03220 -27.85390 -71.54600 -46.45690 -168.25900 60.88500 133.48500 -4.98197 -25.82180 -1.11741 -9.58112 -15.81290 16.83050 
